<?xml version="1.0" encoding="UTF-8" standalone="no"?>
<!-- Created with Inkscape (http://www.inkscape.org/) -->

<svg
   xmlns:dc="http://purl.org/dc/elements/1.1/"
   xmlns:cc="http://creativecommons.org/ns#"
   xmlns:rdf="http://www.w3.org/1999/02/22-rdf-syntax-ns#"
   xmlns:svg="http://www.w3.org/2000/svg"
   xmlns="http://www.w3.org/2000/svg"
   xmlns:xlink="http://www.w3.org/1999/xlink"
   xmlns:sodipodi="http://sodipodi.sourceforge.net/DTD/sodipodi-0.dtd"
   xmlns:inkscape="http://www.inkscape.org/namespaces/inkscape"
   width="297mm"
   height="420mm"
   viewBox="0 0 1052.3622 1488.189"
   id="svg2"
   version="1.1"
   inkscape:version="0.91 r13725"
   sodipodi:docname="ic_launcher_calendarlookup.svg">
  <defs
     id="defs4" />
  <sodipodi:namedview
     id="base"
     pagecolor="#ffffff"
     bordercolor="#666666"
     borderopacity="1.0"
     inkscape:pageopacity="1"
     inkscape:pageshadow="2"
     inkscape:zoom="0.9899495"
     inkscape:cx="479.38574"
     inkscape:cy="559.17218"
     inkscape:document-units="px"
     inkscape:current-layer="layer1"
     showgrid="false"
     inkscape:window-width="1598"
     inkscape:window-height="751"
     inkscape:window-x="1"
     inkscape:window-y="20"
     inkscape:window-maximized="0" />
  <metadata
     id="metadata7">
    <rdf:RDF>
      <cc:Work
         rdf:about="">
        <dc:format>image/svg+xml</dc:format>
        <dc:type
           rdf:resource="http://purl.org/dc/dcmitype/StillImage" />
        <dc:title />
      </cc:Work>
    </rdf:RDF>
  </metadata>
  <g
     inkscape:label="Layer 1"
     inkscape:groupmode="layer"
     id="layer1"
     transform="translate(0,435.82677)">
    <path
       style="fill:#000000"
       d="m 383.25891,662.24612 c -2.37017,-22.34356 -4.45674,-44.67007 -3.6829,-67.18532 -1.16577,-9.41761 4.57017,-24.15052 -10.29063,-15.86862 -16.00856,2.64788 -29.81456,14.11488 -44.32302,17.34664 -14.39656,-3.25997 -18.82381,-32.85373 -1.07067,-22.10538 15.35065,-4.39472 31.50559,-7.89117 47.06649,-12.88661 6.45009,-11.4458 -35.17793,-6.06349 -12.76713,-16.53593 0.49783,-8.99211 -8.27205,-21.20362 -19.74083,-16.95759 -14.23012,2.76842 -5.1596,-22.02634 -5.1585,-10.56891 10.09782,8.83134 31.97872,-5.29521 46.27969,-5.75097 5.58511,-3.44731 7.44922,-27.23732 -4.24358,-26.74167 -14.21233,5.04097 -26.22592,19.02603 -43.38266,16.66748 6.68033,-6.39534 19.14522,-12.64076 27.17988,-20.31955 7.15636,-7.38251 -5.25345,-22.43984 11.57418,-16.25319 15.61201,-5.32089 9.54413,20.16159 22.62802,9.44912 12.15317,-4.86211 35.17101,-13.82622 40.20963,2.71607 -4.84733,16.98433 -41.10521,-4.0357 -27.88631,18.25797 -7.44326,14.59713 21.49632,3.5342 24.10141,17.36645 1.8524,16.27801 -17.1739,4.07639 -26.25854,6.68251 -7.9645,8.24971 -0.75205,29.20037 12.52474,31.875 10.62996,4.27001 38.36456,12.11595 26.06363,27.05783 -12.43598,0.74811 -39.98919,-25.53226 -40.66377,-0.9359 0.9413,22.06254 0.65252,44.84009 -5.03149,66.24392 1.03997,2.52603 -13.42809,31.0565 -13.12764,18.44665 z m -0.31152,-130.09934 c 6.79381,-13.69235 -14.64867,-12.41277 -11.20227,-1.81434 7.45212,3.96435 11.91203,25.22369 11.20227,1.81434 z m 169.87402,103.18489 c -7.34886,-12.14851 -16.83711,-20.01978 -24.65522,-31.03174 -3.48204,-12.07217 19.54129,-29.70344 11.24356,-36.23287 -9.12482,8.39635 -20.12345,15.54836 -30.32785,22.78609 -10.60873,7.98174 -31.26227,2.6205 -34.06584,-8.11631 11.21647,6.4959 20.55831,-7.23776 31.13698,-10.14506 14.33488,-7.2096 27.40863,-16.46854 41.71119,-23.10333 3.39863,-11.88116 1.68924,-36.20578 -14.89782,-19.34248 -8.75208,4.15336 -27.31765,11.91553 -9.96922,0.71669 12.10476,-10.63898 23.59449,-26.68488 42.09405,-22.44141 16.18219,-1.12037 11.52049,18.78438 -2.22465,14.89271 10.54169,4.34234 0.87194,19.6624 13.75241,16.77898 4.76602,19.80936 21.42369,-13.45877 32.52128,4.90886 14.52817,2.64588 27.5532,-23.28549 44.05304,-13.82996 19.90734,11.63402 0.31136,29.19596 -5.52552,42.70872 11.28346,1.74058 8.25924,22.95718 -3.76119,18.64375 -7.68716,-1.97398 -25.08558,-6.74624 -28.63773,1.72994 -9.91924,21.1766 -24.53697,-9.72539 -19.39459,-21.82063 0.673,-9.68542 -0.33694,-35.72599 -11.60851,-15.27878 -10.60316,12.42745 -23.71508,26.1335 -21.19581,44.06196 -1.39718,10.38008 0.0594,29.73557 -10.24856,34.11487 z m 67.1875,-58.58555 c 8.5546,-3.50942 16.33022,-28.41146 -0.84501,-15.2676 -7.44085,0.79041 -2.36177,10.60444 -3.71749,15.8301 1.53667,-0.0415 3.10374,0.19731 4.5625,-0.5625 z M 572.32984,464.51454 c -5.24986,-7.6309 -26.37412,-17.45496 -7.26746,-22.36327 4.8792,-17.17314 0.77625,-36.45741 0.31173,-54.31454 -11.22203,2.87051 -19.34605,29.81959 -32.43765,39.18934 -5.70303,7.0838 -29.1399,21.66636 -12.69951,4.78211 7.86745,-11.60178 21.15857,-26.04386 22.79468,-38.04585 -6.71149,15.89221 -26.88358,14.58033 -35.96022,2.22972 -3.27042,-5.96265 1.43013,-14.44392 2.92473,-2.85528 15.58894,1.20888 27.18149,-17.78978 40.81612,-25.29418 3.16178,-8.14504 25.94126,-3.52975 12.01431,-13.56298 -7.05808,-1.22731 -30.74398,-12.63978 -10.75521,-11.26126 11.17684,-9.76542 43.66916,-13.35669 35.34908,9.53999 -6.44783,6.78679 -13.12374,38.26693 2.48112,19.47951 6.90315,-7.89115 26.4501,-14.5434 21.97212,-26.02941 11.67516,-8.32467 37.48193,12.53234 12.92088,18.78577 -14.99725,4.95781 -30.20772,10.74046 -43.75643,18.81071 0.18703,15.74732 24.62007,19.99054 36.85747,27.45417 16.02325,6.00686 31.89148,13.01241 48.45511,17.28784 -6.07184,8.2758 -29.75617,17.00828 -44.16439,8.77389 -16.43224,-3.27773 -29.08648,-15.52712 -37.86494,-28.93738 -11.58488,-17.72625 -4.66183,18.03231 -5.70893,25.56229 -1.34606,8.69087 8.13554,31.61753 -6.28261,30.76881 z M 308.44201,434.73626 c 12.65015,-10.47207 22.00091,-24.57204 32.1294,-37.50296 4.14918,-8.70327 16.839,-24.07356 13.71421,-29.58004 -13.89599,4.29891 -31.93987,19.16401 -45.00954,7.55061 -5.93603,-4.32807 1.07287,-26.92213 3.75829,-15.67057 6.70819,7.64404 24.17585,-6.12855 34.28704,-8.00039 13.07485,-1.38073 22.98874,-11.38954 9.44737,-21.18217 -3.61601,-5.536 -18.92661,-18.07407 -3.37761,-11.50292 18.57028,-1.38804 28.92644,24.85022 45.31506,7.52739 14.84046,-13.97722 38.31275,17.86259 14.16786,22.53213 -13.11563,9.70928 -18.14167,29.12359 -12.66867,44.29406 10.27935,14.21654 30.40934,4.01594 44.86188,3.98695 16.08424,-2.11621 -6.26989,-30.50379 0.50411,-26.50473 5.06114,8.93022 14.49095,15.07582 21.75,21.35574 17.60445,14.56555 -10.89718,30.14485 -25.75495,26.57052 -16.45197,-0.0283 -37.33391,3.86461 -47.98767,-12.22523 -13.86369,-12.93028 -14.51244,-34.38256 -8.2565,-51.43556 -7.46271,0.99423 -10.03643,27.0313 -20.30944,34.89746 -10.9018,22.40293 -32.03942,40.36086 -56.50795,45.90161 l -0.0629,-1.0119 0,0 z M 573.46313,321.46819 c -9.75738,-3.04236 -18.51797,-23.47735 -16.16737,-27.5407 15.40394,-7.66897 29.6698,9.5898 29.87166,22.84484 -3.7799,2.00701 -9.28452,6.73111 -13.70429,4.69586 z"
       id="path3429"
       inkscape:connector-curvature="0" />
  </g>
</svg>
